<mxfile host="65bd71144e">
    <diagram id="F93EJ78Encii_axwBR-_" name="vsphere ocs nfs">
        <mxGraphModel dx="675" dy="669" grid="1" gridSize="10" guides="1" tooltips="1" connect="1" arrows="1" fold="1" page="1" pageScale="1" pageWidth="827" pageHeight="1169" math="0" shadow="0">
            <root>
                <mxCell id="RLrD2wQ3GaesSWJJB9j4-0"/>
                <mxCell id="RLrD2wQ3GaesSWJJB9j4-1" value="Infrastructure" style="" parent="RLrD2wQ3GaesSWJJB9j4-0"/>
                <mxCell id="RLrD2wQ3GaesSWJJB9j4-55" value="Compute node 1" style="aspect=fixed;perimeter=ellipsePerimeter;html=1;align=center;shadow=0;dashed=0;fontColor=#4277BB;labelBackgroundColor=#ffffff;fontSize=12;spacingTop=3;image;image=img/lib/ibm/vpc/Instance.svg;strokeColor=#007FFF;strokeWidth=3;" parent="RLrD2wQ3GaesSWJJB9j4-1" vertex="1">
                    <mxGeometry x="378" y="421" width="60" height="60" as="geometry"/>
                </mxCell>
                <mxCell id="RLrD2wQ3GaesSWJJB9j4-56" value="Compute node 2" style="aspect=fixed;perimeter=ellipsePerimeter;html=1;align=center;shadow=0;dashed=0;fontColor=#4277BB;labelBackgroundColor=#ffffff;fontSize=12;spacingTop=3;image;image=img/lib/ibm/vpc/Instance.svg;strokeColor=#007FFF;strokeWidth=3;" parent="RLrD2wQ3GaesSWJJB9j4-1" vertex="1">
                    <mxGeometry x="534" y="421" width="60" height="60" as="geometry"/>
                </mxCell>
                <mxCell id="RLrD2wQ3GaesSWJJB9j4-57" value="Compute node 3" style="aspect=fixed;perimeter=ellipsePerimeter;html=1;align=center;shadow=0;dashed=0;fontColor=#4277BB;labelBackgroundColor=#ffffff;fontSize=12;spacingTop=3;image;image=img/lib/ibm/vpc/Instance.svg;strokeColor=#007FFF;strokeWidth=3;" parent="RLrD2wQ3GaesSWJJB9j4-1" vertex="1">
                    <mxGeometry x="680" y="421" width="60" height="60" as="geometry"/>
                </mxCell>
                <mxCell id="cy2UKIFJcyqrFq40SOo--8" value="" style="image;html=1;image=img/lib/clip_art/computers/Laptop_128x128.png;rounded=1;dashed=1;fontColor=#0000FF;strokeColor=#0000FF;fillColor=none;align=center;verticalAlign=top;" parent="RLrD2wQ3GaesSWJJB9j4-1" vertex="1">
                    <mxGeometry x="40" y="421" width="50" height="60" as="geometry"/>
                </mxCell>
                <mxCell id="cy2UKIFJcyqrFq40SOo--14" value="" style="endArrow=classic;html=1;dashed=1;fontColor=#0000FF;exitX=1;exitY=0.5;exitDx=0;exitDy=0;entryX=0;entryY=0.517;entryDx=0;entryDy=0;entryPerimeter=0;" parent="RLrD2wQ3GaesSWJJB9j4-1" source="cy2UKIFJcyqrFq40SOo--8" target="wgTG8bgP51D0Chewctls-16" edge="1">
                    <mxGeometry relative="1" as="geometry">
                        <mxPoint x="280" y="590" as="sourcePoint"/>
                        <mxPoint x="190" y="530" as="targetPoint"/>
                    </mxGeometry>
                </mxCell>
                <mxCell id="cy2UKIFJcyqrFq40SOo--15" value="Applications&lt;br&gt;(Cloud Pak)" style="edgeLabel;resizable=0;html=1;align=center;verticalAlign=middle;" parent="cy2UKIFJcyqrFq40SOo--14" connectable="0" vertex="1">
                    <mxGeometry relative="1" as="geometry">
                        <mxPoint x="-112" y="49" as="offset"/>
                    </mxGeometry>
                </mxCell>
                <mxCell id="wgTG8bgP51D0Chewctls-2" value="Storage node 1" style="aspect=fixed;perimeter=ellipsePerimeter;html=1;align=center;shadow=0;dashed=0;fontColor=#4277BB;labelBackgroundColor=#ffffff;fontSize=12;spacingTop=3;image;image=img/lib/ibm/vpc/Instance.svg;strokeColor=#007FFF;strokeWidth=3;" parent="RLrD2wQ3GaesSWJJB9j4-1" vertex="1">
                    <mxGeometry x="378" y="570" width="60" height="60" as="geometry"/>
                </mxCell>
                <mxCell id="wgTG8bgP51D0Chewctls-3" value="Storage node 2" style="aspect=fixed;perimeter=ellipsePerimeter;html=1;align=center;shadow=0;dashed=0;fontColor=#4277BB;labelBackgroundColor=#ffffff;fontSize=12;spacingTop=3;image;image=img/lib/ibm/vpc/Instance.svg;strokeColor=#007FFF;strokeWidth=3;" parent="RLrD2wQ3GaesSWJJB9j4-1" vertex="1">
                    <mxGeometry x="534" y="570" width="60" height="60" as="geometry"/>
                </mxCell>
                <mxCell id="wgTG8bgP51D0Chewctls-4" value="Storage node 3" style="aspect=fixed;perimeter=ellipsePerimeter;html=1;align=center;shadow=0;dashed=0;fontColor=#4277BB;labelBackgroundColor=#ffffff;fontSize=12;spacingTop=3;image;image=img/lib/ibm/vpc/Instance.svg;strokeColor=#007FFF;strokeWidth=3;" parent="RLrD2wQ3GaesSWJJB9j4-1" vertex="1">
                    <mxGeometry x="680" y="570" width="60" height="60" as="geometry"/>
                </mxCell>
                <mxCell id="wgTG8bgP51D0Chewctls-13" value="Control node 3" style="aspect=fixed;perimeter=ellipsePerimeter;html=1;align=center;shadow=0;dashed=0;fontColor=#4277BB;labelBackgroundColor=#ffffff;fontSize=12;spacingTop=3;image;image=img/lib/ibm/vpc/Instance.svg;strokeColor=#007FFF;strokeWidth=3;" parent="RLrD2wQ3GaesSWJJB9j4-1" vertex="1">
                    <mxGeometry x="685" y="720" width="60" height="60" as="geometry"/>
                </mxCell>
                <mxCell id="wgTG8bgP51D0Chewctls-14" value="Control node 2" style="aspect=fixed;perimeter=ellipsePerimeter;html=1;align=center;shadow=0;dashed=0;fontColor=#4277BB;labelBackgroundColor=#ffffff;fontSize=12;spacingTop=3;image;image=img/lib/ibm/vpc/Instance.svg;strokeColor=#007FFF;strokeWidth=3;" parent="RLrD2wQ3GaesSWJJB9j4-1" vertex="1">
                    <mxGeometry x="539" y="720" width="60" height="60" as="geometry"/>
                </mxCell>
                <mxCell id="wgTG8bgP51D0Chewctls-15" value="Control node 1" style="aspect=fixed;perimeter=ellipsePerimeter;html=1;align=center;shadow=0;dashed=0;fontColor=#4277BB;labelBackgroundColor=#ffffff;fontSize=12;spacingTop=3;image;image=img/lib/ibm/vpc/Instance.svg;strokeColor=#007FFF;strokeWidth=3;" parent="RLrD2wQ3GaesSWJJB9j4-1" vertex="1">
                    <mxGeometry x="383" y="720" width="60" height="60" as="geometry"/>
                </mxCell>
                <mxCell id="wgTG8bgP51D0Chewctls-16" value="Ingress (VIP)" style="aspect=fixed;perimeter=ellipsePerimeter;html=1;align=center;shadow=0;dashed=0;fontColor=#4277BB;labelBackgroundColor=none;fontSize=12;spacingTop=3;image;image=img/lib/ibm/vpc/LoadBalancer.svg;strokeColor=#007FFF;strokeWidth=3;" parent="RLrD2wQ3GaesSWJJB9j4-1" vertex="1">
                    <mxGeometry x="254" y="433" width="36" height="36" as="geometry"/>
                </mxCell>
                <mxCell id="wgTG8bgP51D0Chewctls-17" value="API (VIP)" style="aspect=fixed;perimeter=ellipsePerimeter;html=1;align=center;shadow=0;dashed=0;fontColor=#4277BB;labelBackgroundColor=none;fontSize=12;spacingTop=3;image;image=img/lib/ibm/vpc/LoadBalancer.svg;strokeColor=#007FFF;strokeWidth=3;" parent="RLrD2wQ3GaesSWJJB9j4-1" vertex="1">
                    <mxGeometry x="254" y="732" width="36" height="36" as="geometry"/>
                </mxCell>
                <mxCell id="wgTG8bgP51D0Chewctls-24" value="" style="image;html=1;image=img/lib/clip_art/computers/Laptop_128x128.png;rounded=1;dashed=1;fontColor=#0000FF;strokeColor=#0000FF;fillColor=none;align=center;verticalAlign=top;" parent="RLrD2wQ3GaesSWJJB9j4-1" vertex="1">
                    <mxGeometry x="35" y="720" width="50" height="60" as="geometry"/>
                </mxCell>
                <mxCell id="wgTG8bgP51D0Chewctls-25" value="Management&lt;br&gt;(OpenShift)" style="edgeLabel;resizable=0;html=1;align=center;verticalAlign=middle;" parent="RLrD2wQ3GaesSWJJB9j4-1" connectable="0" vertex="1">
                    <mxGeometry x="59.99999666666781" y="699.9999999977779" as="geometry"/>
                </mxCell>
                <mxCell id="wgTG8bgP51D0Chewctls-26" value="" style="endArrow=classic;html=1;dashed=1;fontColor=#0000FF;entryX=0;entryY=0.5;entryDx=0;entryDy=0;" parent="RLrD2wQ3GaesSWJJB9j4-1" target="wgTG8bgP51D0Chewctls-17" edge="1">
                    <mxGeometry relative="1" as="geometry">
                        <mxPoint x="100" y="750" as="sourcePoint"/>
                        <mxPoint x="264" y="461.6120000000001" as="targetPoint"/>
                    </mxGeometry>
                </mxCell>
                <mxCell id="aHny1UUGUEK6EOTD6ick-6" value="" style="group" parent="RLrD2wQ3GaesSWJJB9j4-1" vertex="1" connectable="0">
                    <mxGeometry x="360" y="30" width="66" height="70" as="geometry"/>
                </mxCell>
                <mxCell id="RLrD2wQ3GaesSWJJB9j4-58" value="NFS Server" style="aspect=fixed;perimeter=ellipsePerimeter;html=1;align=center;shadow=0;dashed=0;fontColor=#4277BB;labelBackgroundColor=#ffffff;fontSize=12;spacingTop=3;image;image=img/lib/ibm/vpc/Instance.svg;strokeColor=#007FFF;strokeWidth=3;" parent="aHny1UUGUEK6EOTD6ick-6" vertex="1">
                    <mxGeometry width="60" height="60" as="geometry"/>
                </mxCell>
                <mxCell id="RLrD2wQ3GaesSWJJB9j4-63" value="" style="fontColor=#0066CC;verticalAlign=top;verticalLabelPosition=bottom;labelPosition=center;align=center;html=1;outlineConnect=0;fillColor=#CCCCCC;strokeColor=#6881B3;gradientColor=none;gradientDirection=north;strokeWidth=2;shape=mxgraph.networks.storage;" parent="aHny1UUGUEK6EOTD6ick-6" vertex="1">
                    <mxGeometry x="40" y="40" width="26" height="30" as="geometry"/>
                </mxCell>
                <mxCell id="aHny1UUGUEK6EOTD6ick-7" value="DNS Server" style="aspect=fixed;perimeter=ellipsePerimeter;html=1;align=center;shadow=0;dashed=0;fontColor=#4277BB;labelBackgroundColor=#ffffff;fontSize=12;spacingTop=3;image;image=img/lib/ibm/infrastructure/service_discovery_configuration.svg;" parent="RLrD2wQ3GaesSWJJB9j4-1" vertex="1">
                    <mxGeometry x="479" y="30" width="60" height="60" as="geometry"/>
                </mxCell>
                <mxCell id="aHny1UUGUEK6EOTD6ick-8" value="DHCP Server" style="aspect=fixed;perimeter=ellipsePerimeter;html=1;align=center;shadow=0;dashed=0;fontColor=#4277BB;labelBackgroundColor=#ffffff;fontSize=12;spacingTop=3;image;image=img/lib/ibm/management/cluster_management.svg;" parent="RLrD2wQ3GaesSWJJB9j4-1" vertex="1">
                    <mxGeometry x="599" y="30" width="60" height="60" as="geometry"/>
                </mxCell>
                <mxCell id="RLrD2wQ3GaesSWJJB9j4-50" value="Networking" parent="RLrD2wQ3GaesSWJJB9j4-0"/>
                <mxCell id="RLrD2wQ3GaesSWJJB9j4-51" value="vSphere cluster" style="shape=mxgraph.ibm.box;prType=region;fontStyle=0;verticalAlign=top;align=left;spacingLeft=32;spacingTop=4;fillColor=none;rounded=0;whiteSpace=wrap;html=1;strokeColor=#919191;strokeWidth=2;dashed=0;container=1;spacing=-4;collapsible=0;expand=0;recursiveResize=0;" parent="RLrD2wQ3GaesSWJJB9j4-50" vertex="1">
                    <mxGeometry x="110" y="120" width="700" height="725" as="geometry"/>
                </mxCell>
                <mxCell id="UHsRZGF2pZz55ExVRB1n-3" value="" style="endArrow=classic;html=1;dashed=1;fontColor=#0000FF;entryX=0.5;entryY=1;entryDx=0;entryDy=0;exitX=0;exitY=0.5;exitDx=0;exitDy=0;edgeStyle=orthogonalEdgeStyle;" parent="RLrD2wQ3GaesSWJJB9j4-50" source="cy2UKIFJcyqrFq40SOo--24" target="UHsRZGF2pZz55ExVRB1n-2" edge="1">
                    <mxGeometry relative="1" as="geometry">
                        <mxPoint x="300" y="440" as="sourcePoint"/>
                        <mxPoint x="400" y="440" as="targetPoint"/>
                        <Array as="points">
                            <mxPoint x="260" y="360"/>
                        </Array>
                    </mxGeometry>
                </mxCell>
                <mxCell id="RLrD2wQ3GaesSWJJB9j4-38" value="OpenShfit" style="" parent="RLrD2wQ3GaesSWJJB9j4-0"/>
                <mxCell id="RLrD2wQ3GaesSWJJB9j4-43" value="" style="fontStyle=0;verticalAlign=top;align=center;spacingTop=-2;fillColor=none;rounded=0;whiteSpace=wrap;html=1;strokeWidth=2;dashed=1;container=1;collapsible=0;expand=0;recursiveResize=0;strokeColor=#FF0000;" parent="RLrD2wQ3GaesSWJJB9j4-38" vertex="1">
                    <mxGeometry x="200" y="185" width="584" height="645" as="geometry"/>
                </mxCell>
                <mxCell id="RLrD2wQ3GaesSWJJB9j4-46" value="Compute Plane" style="fontStyle=0;verticalAlign=top;align=left;spacingTop=-2;fillColor=none;rounded=0;whiteSpace=wrap;html=1;strokeColor=#4376BB;strokeWidth=3;dashed=0;container=1;collapsible=0;expand=0;recursiveResize=0;" parent="RLrD2wQ3GaesSWJJB9j4-43" vertex="1">
                    <mxGeometry x="10" y="201" width="560" height="130" as="geometry"/>
                </mxCell>
                <mxCell id="RLrD2wQ3GaesSWJJB9j4-44" value="" style="shape=image;verticalLabelPosition=bottom;labelBackgroundColor=#ffffff;verticalAlign=top;aspect=fixed;imageAspect=0;image=data:image/png,iVBORw0KGgoAAAANSUhEUgAAAIwAAACNCAYAAABlnJKbAAAgAElEQVR4Ae19CZgkR3XmLODFBxhfWiMOg40wtrA1XZWVle9FVLUasBHCwrB4ZcPau/hjvQaMYcG7GNlgDCv2A4OxMcgYC3SMRjOaQzOa+55pSXN0Zk1rRppRVc+h85M16EIX1q3p3O/PytcdHZNZlV1XX1Xfl19ERryMjHjx13svrpeLFvV/fQ70OdDnQJ8DfQ70OdDnQJ8DfQ70OdDnQJ8DfQ4sGnWcnzyk1Bt8zyv5nveBiqf+t0/09z7RVT7RmoBoa0C0J2C+CZfPvNsn2hwQrfSJLg+I/l/A/OcB8/t8z3Mqrvvq4aGhl/VZOw84sOrii186qtSbfM/7vYDoqxWiLT7RCZ/5RwFReKtS4W1aT1y4P6xUeMi6kGbTgiYgOh0QPeIT3QZABUSfrTC/AyCaB+xbGE04VC6fVSF6T0D0rYD5UED07+jcI1pHYLhFqbDCHF0ATTsXyjnIHKJMAdQoM8p8OGDePUL0ed/zaHho6McXBvfnSCuDYvHnK0R/EP/LHwBAIDkQokPbAcW0n41BBKmEOuB5n2gsIPoHqMG++ppBUI0Q6YD5uxXm+0Vt9BwgCVLKN9IghSCBIvAAvMyHA+bP7FfqDTPIuoXzahitFc/7o4BoL/696AgBidlR05YMRie3+2xqPZgjqRdLnsdhaI8QeQun93rYUt/zfjoenRyDNMGFf28s8qeE7XZ4u8+nAsYAJeoeAweG88YRoqEesnP+vmrLOee8PGD+iE908latI/Fud6h0kIQmiExaM99MT4rbtPZ90jOSloUWNLgAHBjMQR38G/oSpw0sjxD9LkY6YCjsAOkQO5QOktDO7/V9lnrYNAIcn/nFgPkKzBW1wbqF9ajveW/2ia7HEDWe70gFC8AgzJew1wCx35elHmk0hqp6xGf+VHjxxS9dWL0/zdZWiD4ZED0O/Q7m2Z0x7Xspww5hT0ia2Bb2vaS3E0qZZijxBuXizxLbOHtHiPLTZOP8Jz/AfI7PvB3qB6Me8x9oxpMAI/kSJtH0Mi1LPbLQoM4w7gOipzEUn/8oyNjCgPmDPtEjMGrP+Nc3+Bf2EgQz9S4AC38g/JGwpnUr82szsnX+kWHWEzOgEL/xlHr7KmgeAyxSUcz3jnre2+YfGpq0CAt0PtGOjtkq8xgopnSLBwHPV4g+1oTF8yd7lPk3A+ZjkQqKRzkQvaLXJW7fg3GSJkwUWsmTfDPdpJW4hCa9WYY8nxQKnR3aZck7kkKzXDNf0iVN7s2yoaLiRdSvzx9UpLQEM5oB80Mw5oQZwhwzFAYhzYybNBKXfAnTnjHz5dm00Ka179OeS3u3TZ+1PNDZtNH9pF2zdNRxfiyF3XM7OWC+yCd6Ksvcis3g/n3yVoxIpROtxxrb3EaHVfuA+T8HzM82mrE1QWH+q8y4SSNxyZdQ0mcqzFKPLDSofyM6yQNofKKdWG+z2D43b+MNTc/1R0LJUqITwI5BMzznQRMo9faA6KlbrMm4ZkySf0+zf5mZbz7TrPxu5mepRxYas21J9bXLEEkzZ9VTUCwuxp5XUUN2A5OYIGkmrRmXfDOUfAmRZ8aFNilN8pqF03k2C20WGmlHGm1SegQa5nVzbg1qn9avCYhOxFPbs25CDutUUJGoH5gsF+4hDTF0xZVGg/SOrHV1Yf4oljSXzxkDpnruuf8RRzWifR42QzIsvDX7t7eSLwABM6N6Mb8QEN3nM9/se96SCvOXRog+Fu0NZr4oYL4gvi4aqe8X/mhA9MUK0VU4flJhvtcnegFloUyAbNYsa8geG6K/zgqanY7zquGBoZ/JSt9ROp/on2OUT5EsSSI0rfNNWjOeRC/5Epo06EjUBYDBJixsi6wQ/fF+5Q6MOs6rWm04jEvf884bIfrj+EzTSQAG78pi3CfV1ay3xBvRNcqLpB+kINH7G7Vxg0P5NfnS360YKN21Il8a26f1WxrRdzwvIPpQPAt5hh3RqIHCIAlNWjMu+WYo+RKCWZFqqa/0nqgwfx079rtpDKLsURyOqx+KO4m5JtQh6jhbyqbYWGabJC5tknszbJQHuhi4P/Q971yzo7e7g69fmy99fOVAae+yXPmF6/JD4ZLc+eHy/NvCdY7eE168qDd7cFCxgPkx+YfZDbLvzcbbcZPWjNt0uJd8dA6WG+Jda5t8pd67/bzzfspkVi/it5133k9F8071U5SnobZs4Eidk9pjpjWia5QnfIneTTSyL6dfc32+9J4VA6VV1w6UHwNIluaGwisHBqdcK/JD4baC/lTX+QSrPCC6Ef8qoyHjWRtv0kljJc0ob4qKM+km7BLm5RWl3K43OOMLcJAtYF4dEI2DN1naJDTSvrT2p6XjuQrX53z2ehxuc3W4PFd+ZGnu/PDa/FB41cD5U0AioLliYDDKW50vPXqkVPqVjE1sjcxn/quo0wzxazfIvjcZY8dNWjNu00H93aIi+2TLbN5ADZWI05BQVdOZk2rUdjsPIMG13+Nwh6vC1flSuGRgMLxicR0IV0WAmCpRBCygW54rh2tyOtxRKIc3FXlZa0jI8BSMPxxJxTDU7FC7Qfa9SWvHTVozLnQQ8TAwA6K7MIrJUM1ZQQKDO2A+Zf+5pF12mNR2k0ZAMkIc7i6qcK1TCq8ZKIeQFgCKACIpvHpgMFw2UA6vz5XC9Xkdbsyr+NLh9kKkRt/RFaYFzNuaMkDAJKEhiUwGZInDRoomA5mvGHacX+hKo7pY6AHm10JNQUXZf7Is7QdIDnLddhsuqnBDoRQuy5UjcAAoAIdIEwkFMADJtQPlcLUBkk0TQBHAqHB7oRQOF9XecNGil3SUFSNEfyirz/a/odl9I+aYz5rxyA5gfsz3vD/qaENmoLCA6BNYkBX+JfHDbDukar39pXBTIbJL6iBJkCQAioAE8aUD5XBlrhSumyJJVLghASyQNEjf5epwhOj3O8aaaC6C6KRM/Sc1+Iy0NiRMpIKYj0IFdqwRM1xQRalBn+i+RhIa/I3V7+kK8003OKXvfH/x4GkxXkWK2CCBalqRK4U3xCBJkiSTamhSughgtjmlcNhVt5/q1NYJn/mSuCFTbBcBifnvkLRWQ7wHWzrhqWGG+7jjrz9YKv2KT3TEBA1UFdocTVEwH4N/GzgwkpdfNTD4xWtzGPFMShJIFBiv1+XK4dqcTpUeaSCpA0WHW5xSuMcth7tc9cJej28+TPRGeW/L4ajjnO0TPShzLpmBMF0JM2ncrjp54YUvb7nCs/xB7HEOmA9WSyVZungwILr6APO7DjD/RFL1rxwoL12Wf1sIu6Q+wimFG/I6hCSZnjTR4ea8Dne55XC3q8Ibi1wbIbr0UKm4OOm9LaX5zF+J//WRdIE0sS/MPUgaAGVKHEm3Q6ET2ugdzMvhTaqlis6hh0bL5bPhvsRn/vB+pf5Ts6r/q/Oen1yVK41sccrGCGfSLoEdYl+ibuq2C0ZDkCa41Kl9RfU9eNC6u9MOkHzPex22LZgWvtnxhrRpaeIuBst4DJZ1fSc86dDZkvPO3ZBXj2926ipIAGICQ9IEJFudUrjbLYW7CupHe4u8IWD+r6NDXRxt+kSXojMNYCTGRUo0o0vKj/X5/uGhoVeks6ufAw6sz6mPwUBNs00AlC2ODne75XBHgU8PF9kfIfqLo0q9qescrDL/nE/0b7btIhLG7HwbMPa9SWvG4zmWeyqu+/quN2ievGBjXm2DejGlyaa8DncWStHweLjIJ/Z5/DUsm3R8bqURD3GAKot0AQASAdLE6IWawz4TfyGe7mvE+CZ5G3OlxRvy6umNeR1CPUHl7Cyoh272aOlBz3v3be/s/SLsIhiesOSTJpo6JWGgirAu1YQ//ewEDmwr8GU+6XB/ke4YIfpQdabdv+IQWrRMnyAlBDCWVMls9OK5eBZ3d7ho0X9I4Ec/KYED2N1YVcW315R7eU0X7r+jVAzHlHvi7qE3zryrV3jCzqqOUlVSyhpSPOJ6aj7N4ib0b8eSTpa9c8e0+4Waco8e0254d9kLj+tiWNNueFfZC2vK/bOOvayVgg7Ujd3745nHxFGRabimAiZBOoE2GkITXdpK3RbKM3d53i9WS4UP17S7s6YLzwIkJyFRtBsBBWDBhbSqdg/P6BFa7CBLsl0EJKKS5D4JMJa6mgBdvIH6zuGBgZnZhDyLEYdZ3jEuXlDThSU1XXjozrIX3lH2IpBULaAIYBAeLxXD27l4wYw1LWBvSSN11A5g4jmXj85Y42bhi28vFRfXVOHLVeWOofOhZo7FKkeA0QgwdbVUWD4jTYtXpe+x515saWJLkGb3eB5zLj7zWDc3aM8I01p46XHm147pwkdqyr2xpt3noXJOlOp2iYDEDBsBBnZNTbs/RJktVKW9RyrM59ubmE2wiPpJkDJNR0mxdPlEezWcu0/jqMtRLl5UU4Xl6OBI5Rh2CUCRBoy0dAEVyqrp4p/0nDs+8xcaqSMTMCaQmkmY2IA+dXO5fFbPGzVLXlhV7pX3DHqxyplqvKLjG4GiUR6eBWDGtLu1500NmHdFcyQpQ+JWAVMHIX+75w2aRS+ssvuuWH1MGemIlGgEikZ5eD4aPSn3iTu180s9a/Ko4/xCQPTAhP2CYXHK0NiULmfE5Zk4lAlAfJGkZ42ZpS+qKXdXXX2cKWEEOK2GUbmq8N961vSD9U/MNAVJgv1yxlqSqaLiBcajmKnsWWNm6YtqXHwf5k6SQNFIijTKQ1nIj0ZL2l3as6YnLjaKtGigos6QMEIbPxvbRP/Qs4bM4hedvPCcl1e1W00DTRKQsqZhlFXV7h04jdkTFvie991mBm8aOEyJYtNEw2nPe3dPGjEHXlJThc9hGJ0VCFnp6nZM4fSRUn5iP3BX2eETDZ9h8LYpYeItDD8cLTtnd7Xyc6jw4+z8Wk27z9jT/FmB0YgOaqmqne5PjGK3W8B8Bwxe20ZJu5f0WLok7unFEkOFaN8c6s+eVBUTdlhtNm0TxOUCKCRuhiZYJN2krc/6Fq/oeiNGtf4ln+iJZpN2UDcWUGSdKHHiDioOPmS63oA59oKaLnymLg0mR0sCAIQmCOx0AY2km7TxAmWl6zvtAq0L2PmfBTC2jSIgOiM9PjYCb0/N+nOh7Ys5pouFmiqc7rRaiud5Hj7qeb/YjOdt5QdK/c7E/IuMclJCkTAmQGK1JNKmPsyO/caNEP1WUuVWOc6rrs2V/8uSXHnF0jyfk0QzX9MwksGIBouNpsSQuB2K1LHT5X5KvnLHAciu8g7uuBJHSBmNXhswAFMsrZ67hejXpfLY+rl0YFAtyZW/ddVA+Z7Ih8niwWeWOLp3M5RSmRkOx1RhdTx3MgEaAUA7YWwbNT0nHX5x0Ut2eN6bW3LEFBB9OhEwCVImq4SBxDrI9MBYsfjz15w3+MtXD5T/8urF5VEc+VwWu866euB8HAF9ZMniGVhpnWnAaPcSc3g9RUpY+18a5QFcZj7KrGr3krTm3eS6r99c4I+vd3jfDXk+fbOnfi+NNjUdXiOnCxhLqkwYvaYfkx2ufuzqgcHtVw4M/gggucY6IwzAXLlQAcPFi8wtDeh0s+NNKZOWLjSSj7A+UnK/Y3b2Pq1fua2g3rve4VVr8+rRDU4pXJvX4ZZCKdzr8Z+atJniAfPXsgLGtF3MuOnHZJ2jw6WxHxP4V4uBMeGWQtxTIH1pbvCRVQtQwlTL3rk15T7XacM3Xrlei47fVuDiekd9Y02O74L7j/VOKbw+p8JV8QXA7CP6dCaQmEQB0bcSAdPIhomd3QRM4c0ejyf5MUlyTzHpeQA+TKJD5T/a4vTgZJ7Z4FkQP1TOnVVV7gOm4SsSo5UQwMNV1cVwv+fdvybH+67P8TikyZq8jkCyOgaKhBFgitl9/E6wzWe+LBEwCTaMqJz9Ho9vd9X4qnxp/OqBwXG4zRKvSACF7Z4C9/CIZLrNqnse0C+uz88fPzATTG0SwYfdsa4kaknUShJY0vIAEAylb1duWKFiuNOl8IY8jwMQ8BUjwBCJYodbC6XwgMd/06SqZ2YHRN9uBBisB2HH3AhRuLvIp9c6+vQ1A+UzQJIEFDi7SfKIJOeDccxzvaMX3rcNFy1aNKbdfRjVACRpoLDzBCRIv4WL4XDRC9c7HEmQlYa6scGRdN8OYL5hAwajHKRF54iYD48Q/8uKfPkZgCKLEz74Mcni7KZ+uFz/4Zkwnv8pVe1ukf0xjQADcIjKuZXdcK/nhZsciiQIQDJdoAh4IsC0cvo0IPoywIG5EyxAxicTTwVE38NnbTDVDKeE1+bKj4r7LADHuMahcuBfre6E70y3WObh8bo7irpPE7j+3JhTn5//8DizhVXlXm8CxgYNDqzV52qK4YhXHN9WoPD6HEcAmQqSuoSpA8GOy72EdaMXzwMw8O5wZs2apAREf32iXMZM7VM+0RY4IsQOPPOxY1q/ckWufLc94lli+VcTVZMlhDoadgfDjY5abb5rocSryl0hk3cCFtgkAFGsqv7tmHK/ua1AK2C4TgXJ5GhHJEaWUMpYm+dwr6dD3/OmP6w+SHQhvvIRFIu/mtZZkDKr8yV/STRMrvt9hXNgkRYmQJLSkF9P1yHUECTLprx6fFNer93iqHemvXc+p9e0uzIeBkenGGPwPFnTxXU1VfgAXK6g/SsH1JUYEmcBRBINQIJrDfzHFBiuyqLlG9il+KpL13i8wdEr1zmDE86BG/tXm+pAGA74dkL95PWLm/Jq/6ac+sTmnHpD1yo7BwqGDXPqfA6xEFnT7oGaLnzqtsHiL5tVDxd98SWrcnyLjHow8ml2CWgAEsy7bHI43FPkEE6hZZQL8yPazqK6+Gfd6dKl9U4XaVG3VWyJIvdwwAdJAq9IG3P6+EZHfwWfYTEZspDjVeX+fU27/zhWmvSaafNjleu+elWOH7k+n00FASQA1AaHw10uR+7lBSSYM5PJ1nit7/RB5pz9zo7d7yqoD8D7kal+JlVNHTywS6ByttelycMb8+qaDTl94cZO+YDtWGvmRkGrcoohMWypIlIEIUCCcF0e3x6AbVJ37Q+gCEDsMPai8cRe3cWF373F0uLNjnoB3o9s0MABXzTiyetnN+bVrk05/T82z7Sjm7mBiYa1XJnjD6+L7ReARoAiIFmbx2iHMdse2SURSBoARYATb2e5C+tMDSvQTiaOe25x1L1wlQXAIKwbr9H90Y159bcbFuu3tvOO/rNTObAqz9+0DV4Yr5tj49W0SwQMWUJMnfi92D671VGbIU3qoNGnNubV5Zsc/bZV/XNHU3u6Q3crc7wTK8uQLhsdfMmEwwOEQ4aT30qSLSdmCNDIvcTNEPNu+CRhh6qZXszugvryfg/epPmvbpipj02mV29e5ax/i37lBofv3lNU4T6vbo+YdgkAYYIgKZ5EA7oIMMz/pysMg7MbOK2pKveqqnIfxHzBHdrt3vi9K62Ye4XCdWpAhJFMJFHQ0Z26oiG153V2/qtGTr6q3a/UtHts0tlNvEmnNHWTztzrjtlfY5/5S7HqaAgUkSK2hEm6R1p8XuwJnBZpmwtjRG+sKveTNeXur2n3xSRnN9FRT+UemnNfZW+bO70rAH7rAqLborPpHZQsAEzskm605eMo95ZKP1vV7u/XtLu2ptwnIpVjOLvBaqlcWPOob9QpPHvC2ODdO1YujDdh0TeeK4mMV3R02jVdCRNLremdF4M3hbFSYaimC/8yptz7sNgl6xoCjqQQgMEVrXuUCh9fGN3X+1YGRMuw1gMwmIBIAo2Zb8flXkI8H+9GuDhTq2qq8BtVVfjbmnKPYGUUHd/KNsF4NXVnppf2iabFgYNav8Uneiqevk+VLEngaZYWS63HG87w3uZ5rxsrFf60qgt7qsp9DnZJuy4noJZq2n36CDu/Ni1u9ImbciB1j3UDtdQMKJIfS5fdqZXAEnlVFU7eY/h9NVWN7MMw0xrFRSWJWqpq9wupL+9nTJsDtzCf4xM9KfYLOtpUJ9LxZmjmm/GkZ2G/BM02TdWUe5PsHbXB0CpgUE68gfl4z5zYTJv9c++BgPj7cadOqCIbBCZYbFDYtOZ9pOKYnxlpNlipKffz5ik7EzTtAAblAIhV7S7IPbmdhmOFWfnML9q2i9npNlimA5h4/WhP03pXuVCsKXfcBIrEWwUMnsMFW6iq3GAhfKuxKaPbIAD/sBgY2RiWrdIqYPCcPIswGnVxhpOO0adTtHt7kqHbKmAEcAjjcvtLBW0AJiD6S3RoMwnSLF8AInRyH9lEzA/hq7aZqllT7leT1FLHAKPcIx3/Smmmls19onjN6GnT0JUORyidbqaZcTPfjJvPRpN1zP+amVuiluLh8MTMrSkp2oljPqeq3e6sfmZu5dwjxB4jfPw8SRWZoGgnLtsxAczMHIKXp6ou+PZoqRMSBmXgDE1Vu49WOb+gnANl7oAUQp/ouniqPlEdmVIiDTSmVDHj8mw8Y7wlpQrpyWO68OfRlL6xNtSOVLGfjaXMhvQa9HNMDlSILo3slkZODywDOA00qenx6YAK87vMd2eKV4fcV9e0+5B8As7u8FbvTSlVP8lX+FSmChlEkIAQz0bSvI4GRJ/AB8fsIXRqx7cIHKi6CvONLTOzpt3LkozfVsFiP4ePQ2H5YYzd87NUcrRcPntHkf5ko8PD6/J8cnu+1BvHxFkq1yWaEaL/CaCkGbkdA038jhGiC1tuyhg7v4nvCNa3KEx6DYCUMC8BgqTZ95KOEHM8cg+6eJh972GiNyZVtDo09IrdLr1ns8PL1uXVw/BhgoNauNbk1INbHa+U9Nx8SPOZPw5AACymvYG4XMiXuBmaQJL0NFrkR9KFaPq2i83omnKvi+2NCCToZOlwCW2A2PdCh9AGDO4j1aTc4PBQ/fuO4cWLXrqHyNtaUN9Y5/Ad8FJle0RaneNxbHhek1dPbiu04HvNbugsu8f3qLA10gaL2ekmKCSOzpd4UmjmC5AiVcf8wgiR1zYbjivXxW66Tg2xI9BYhjTKhuo7oorbtxbo0xvyXFmbn/SIZJ6xwVkb8x4Hz9fkOdxZpM+13dhZUAA+W4gd+rE90bDzkwDRSlq0HsX83Y41H5+SEykj0iNLKJLFpBXAACTYY1NVbjjKxXC3S+HmAo5t1p3wmaCQA1lpIWjhBm24yDcc0vo1HWt4jwuqaP1WnyiIOzAVLKaUsAHSKA+0Zj7i8SG1H8A+7Fhz67ZMZz6SIJLqMBfDm4sUnZ9Bh8vpvCRQ2OCx7+WZTYUSDpLfVyFq6nu2Y8zpUEEB0UcDose7OSlngwv3eJ/P/OEONWOymKpy/2m6IyZTmgAoR1TkhC86rokD4wBJI6AIELKEKAdA2uGqut5nXo3daJMtmJ0xHHAPmLeh47KOhEwpYYOgUZ4tYeL1qO7MhUVfYNeF++OPM6UuFwhIxCPS8ZIXBuSFO1wK4ZhmVU6NTwXJVG9HjcExlVbKgd+2nbH3gYiBXF9tDZifDIi+2lFx2yHc7VfqTQHRdwLmZ2UhsVlnCzhAl0ablm4/G6ki5gdHUkanHWkmPl9bn2ybPBlg2ieQIsjHVdXuqTFd+PYe1/u/Ik1sMIhqQShxmwb3Zp6ABOCTg+Vghn2wHIzDPza2Bx70mb8yqmbeZetBpX6jwnxZQPQE6tbtyTgBioTgC94ZA+aDHQFGo0Jq2t1hLhkAJJhLgbqqKvepmi5uxiYpuIGXctY7vATGrA0GAUIzwOA5AEUc3gxHDm/qIDGPgwpT7BDMiYHzZMC8LGC+ACc0pX7dDjErPUL0fp9oPSQK6pJV/dht6cQ93t+zTw1VtfvWmnafxMLkBHCUe2hMu5fUBr03JzEf8yvrHHW07hmJx9OAY6eLNBFfJvvgy8Q4WN6IeSKaJQQt/lkQ//HI4HiF+R99z3tnYIA7qf6tpEEN+p73Xp/o8oD5XhwIw7sbSRSzrlnalkTTrAzUAZuvhoeGfryVdrX0DBYma9o9VVPuP1e1UxoeGnpZs4J2E+XX5fmJJO9IImlEkgAocFMBlXOT6cvEmJRqxhjJl3AKc5lDrM3gnxaD5wcB0Vb47oMkgNo4VC6fhROFzdoFxo86ztkjRPmA+YM+89cDohsDokcAEuMdqcNkqVtiXY02Z6FLKwPp8SnG+4LiVFdnzdrYdj4W/+5sYfFvu0t/AKc2JkBEqgAkSIebCvhYOxDbJabKMZlhxoWRZij5Epp5dhygwSgFnRsz9Xmf6AGfqBow3xQwr4tUGdHVAfOSCtF1AfNGfHIwYD4WED2Mg/BSRtKIJ0s9stCg7o3o0vLiP8bT+5UabBsAvSxgs8OXrHfq/uwTVY4YsE3+WWmMETBIvoRpjDbz5Vl8tB02BqQQAAQAQJRHl9ZRiDTkoSMie6TJtoPE91htzEIj7UijTUoXe6mrXjC7CaJ1eb5sc6FUVzmxW097lDPReQZTTWaY8Ua0zeiSnu1GWpZ6ZKFB3RrR2XkAC0CNhcxu9mnXy97v0dIj0bCy8WKZ2XkmM8y4SSNxyZdQ0mcqzFKPLDSofyM6Mw8GduTRgfkzXe/Qbr8gHBp6mc+8GnZDo5FDVzpY1IcdQppJmkg2+17S2wmlTDOUeDvlGs9GKrV+suCz3e7LnpUf+zVZCdCc0VFG4wU05r/HjEu+GUq+hGbeTMSz1CMLDereiA55UEH4E/rM097N2LPOb/VF8aGsq2ZE0iSAcibA1Ml3xk6Fng+IPtRqn8yJ5zB/gVGHWPSdZOJCKQsjt2iIz3zBnOj0divpe97/wnxGN1xvzWvQyNIH0W0Vd4H5PvY9790B0QPxFPaEvoZulgudb8dNQNh5uLefEXrJk3uhs0MpMy206eVeypcQ6WmXWbZJI+mSJvcIIZEjycK8/PBAfYtru3/cOfc8/J4ERHttuwYMMpkm8aRQaCUEjRmXZ5LSJM8ObVr73qY377PQZqFBmTHdeDwr/VxTHy5zDgEtVBhOAXzP+xoYFDNmAixmRyzEOEZA8cUN7zgAAAJfSURBVMjydt+bv6cmWoDNokXYiuATnWgkbZJAI/9WCZNoepmWpR5ZaOTPg6/7+p730y0xdb4/tLdU+lmf6J/gQCfW1wtO2sBWwZ8Gh/EPet5vz/c+70j7Rog0Vo8BmmYjKfm3SthLaZL0riz1SKIx1M9jAdHncAylI8xcKIVga0XA/N995rFbtY5WlBt1kNkJZlyeSUqTPDu0ae17m968z0IrNAgBFLQvIIJR+72e72GZb4AaHhp6RYXokwHznWCs6Hazk+ZaHEAR1RMQPR8wLz/Qzc/mzTdQZGkPDL+K5/1ZwHwUoMH8Df6dcwos8apyNPIhejwg+n5FqYEs7e/TtMiBLRee8/KA+X0B86aA+RkwP5I6swQ8om5MIIs0wUYtqFif+W+6euyjRd7O+8fgW3aE6PMB82EsNQh4ZlLyRICJNzNJfQKiH/jM12B2u5enGOY9AFptIDanw1eb73lfCpj3B0T/jhGWdBj+4eY/vtNxABRbDaAm8c4YNHfgsH2F6P03l8tntdq2/nM94AAOskU7+z3vuwFzxWd+FJ2KzsSFjsVwXfbpRhKpEajifScAHtSKgFEA6TM/g0lHn2gNpu/hTqPvCb0HHd2NV2B4foD5tQeYzw+YP+IzfzM6aEZ0yCe6JyD6IWwhSB0AB6CQKwJSfV0L+06eqDDfHxBVK0Q7A+bvjxB9doTod3G2uz9v0o3em0Vl4stj+D6z73mvQ4fjvFE0YajU20eIfqvC/I5A63Ks6s6FkYqDcFnOMM2iZvar0udAnwN9DvQ50OdAnwN9DvQ50OdAnwNZOPD/AUbRaak4OeszAAAAAElFTkSuQmCC;strokeColor=#007FFF;strokeWidth=3;" parent="RLrD2wQ3GaesSWJJB9j4-43" vertex="1">
                    <mxGeometry width="30" height="30.21" as="geometry"/>
                </mxCell>
                <mxCell id="RLrD2wQ3GaesSWJJB9j4-45" value="Red Hat &lt;b&gt;OpenShift &lt;/b&gt;Container Platform" style="text;html=1;strokeColor=none;fillColor=none;align=center;verticalAlign=middle;whiteSpace=wrap;rounded=0;" parent="RLrD2wQ3GaesSWJJB9j4-43" vertex="1">
                    <mxGeometry x="30" y="5.110000000000014" width="130" height="20" as="geometry"/>
                </mxCell>
                <mxCell id="wgTG8bgP51D0Chewctls-12" value="Storage Plane" style="fontStyle=0;verticalAlign=top;align=left;spacingTop=-2;fillColor=none;rounded=0;whiteSpace=wrap;html=1;strokeColor=#4376BB;strokeWidth=3;dashed=0;container=1;collapsible=0;expand=0;recursiveResize=0;" parent="RLrD2wQ3GaesSWJJB9j4-43" vertex="1">
                    <mxGeometry x="10" y="355" width="560" height="130" as="geometry"/>
                </mxCell>
                <mxCell id="wgTG8bgP51D0Chewctls-11" value="Control Plane" style="fontStyle=0;verticalAlign=top;align=left;spacingTop=-2;fillColor=none;rounded=0;whiteSpace=wrap;html=1;strokeColor=#4376BB;strokeWidth=3;dashed=0;container=1;collapsible=0;expand=0;recursiveResize=0;" parent="RLrD2wQ3GaesSWJJB9j4-38" vertex="1">
                    <mxGeometry x="210" y="690" width="564" height="130" as="geometry"/>
                </mxCell>
                <mxCell id="UHsRZGF2pZz55ExVRB1n-2" value="Entitled Registry" style="aspect=fixed;perimeter=ellipsePerimeter;html=1;align=center;shadow=0;dashed=0;fontColor=#4277BB;labelBackgroundColor=#ffffff;fontSize=12;spacingTop=3;image;image=img/lib/ibm/data/device_identity_service.svg;rounded=1;strokeColor=#FF0000;fillColor=#99CCFF;" parent="RLrD2wQ3GaesSWJJB9j4-38" vertex="1">
                    <mxGeometry x="230" y="30" width="60" height="60" as="geometry"/>
                </mxCell>
                <mxCell id="cy2UKIFJcyqrFq40SOo--22" value="Cloud Pak + Cartridges" parent="RLrD2wQ3GaesSWJJB9j4-0"/>
                <mxCell id="cy2UKIFJcyqrFq40SOo--24" value="Cloud Pak" style="fontStyle=0;verticalAlign=top;align=center;spacingTop=-2;fillColor=#99CCFF;rounded=0;whiteSpace=wrap;html=1;strokeColor=#99CCFF;strokeWidth=3;dashed=0;container=1;collapsible=0;expand=0;recursiveResize=0;" parent="cy2UKIFJcyqrFq40SOo--22" vertex="1">
                    <mxGeometry x="354" y="345" width="420" height="30" as="geometry"/>
                </mxCell>
                <mxCell id="H-iLd4gku7cSTXCf_NOj-0" value="" style="shape=image;verticalLabelPosition=bottom;labelBackgroundColor=none;verticalAlign=top;aspect=fixed;imageAspect=0;image=data:image/svg+xml,PHN2ZyB4bWxucz0iaHR0cDovL3d3dy53My5vcmcvMjAwMC9zdmciIHhtbG5zOnhsaW5rPSJodHRwOi8vd3d3LnczLm9yZy8xOTk5L3hsaW5rIiB3aWR0aD0iMzUwcHgiIGhlaWdodD0iNDA2cHgiIHZpZXdCb3g9IjAgMCAzNTAgNDA2IiB2ZXJzaW9uPSIxLjEiPiYjeGE7ICAgIDwhLS0gR2VuZXJhdG9yOiBTa2V0Y2ggNTUuMiAoNzgxODEpIC0gaHR0cHM6Ly9za2V0Y2hhcHAuY29tIC0tPiYjeGE7ICAgIDx0aXRsZT5kYXRhLWljb248L3RpdGxlPiYjeGE7ICAgIDxkZXNjPkNyZWF0ZWQgd2l0aCBTa2V0Y2guPC9kZXNjPiYjeGE7ICAgIDxkZWZzPiYjeGE7ICAgICAgICA8cG9seWdvbiBpZD0icGF0aC0xIiBwb2ludHM9IjAgMCAzNDkuOTk5NjAyIDAgMzQ5Ljk5OTYwMiA0MDUuNjgxNDIgMCA0MDUuNjgxNDIiLz4mI3hhOyAgICA8L2RlZnM+JiN4YTsgICAgPGcgaWQ9IlBhZ2UtMSIgc3Ryb2tlPSJub25lIiBzdHJva2Utd2lkdGg9IjEiIGZpbGw9Im5vbmUiIGZpbGwtcnVsZT0iZXZlbm9kZCI+JiN4YTsgICAgICAgIDxnIGlkPSJkYXRhLWljb24iPiYjeGE7ICAgICAgICAgICAgPHBhdGggZD0iTTc1Ljg4Nzk1NDUsMTI1LjE0NjA4IEM3OS43OTc2MTM2LDEyNS4xNDYwOCA4Mi45Njc1LDEyMS45ODgxMjUgODIuOTY3NSwxMTguMDgyNDQzIEM4Mi45Njc1LDExNC4xODQ3MTYgNzkuNzk3NjEzNiwxMTEuMDE4ODA3IDc1Ljg4Nzk1NDUsMTExLjAxODgwNyBDNzEuOTc4Mjk1NSwxMTEuMDE4ODA3IDY4LjgwODQwOTEsMTE0LjE4NDcxNiA2OC44MDg0MDkxLDExOC4wODI0NDMgQzY4LjgwODQwOTEsMTIxLjk4ODEyNSA3MS45NzgyOTU1LDEyNS4xNDYwOCA3NS44ODc5NTQ1LDEyNS4xNDYwOCIgaWQ9IkZpbGwtMSIgZmlsbD0iIzAwNURGRiIgZmlsbC1ydWxlPSJub256ZXJvIi8+JiN4YTsgICAgICAgICAgICA8cGF0aCBkPSJNMTg5LjE1ODY5MywxMTEuMDIwNzk1IEMxOTMuMDY4MzUyLDExMS4wMjA3OTUgMTk2LjIzODIzOSwxMDcuODYyODQxIDE5Ni4yMzgyMzksMTAzLjk1NzE1OSBDMTk2LjIzODIzOSwxMDAuMDU5NDMyIDE5My4wNjgzNTIsOTYuODkzNTIyNyAxODkuMTU4NjkzLDk2Ljg5MzUyMjcgQzE4NS4yNDkwMzQsOTYuODkzNTIyNyAxODIuMDc5MTQ4LDEwMC4wNTk0MzIgMTgyLjA3OTE0OCwxMDMuOTU3MTU5IEMxODIuMDc5MTQ4LDEwNy44NjI4NDEgMTg1LjI0OTAzNCwxMTEuMDIwNzk1IDE4OS4xNTg2OTMsMTExLjAyMDc5NSIgaWQ9IkZpbGwtMyIgZmlsbD0iIzAwNURGRiIgZmlsbC1ydWxlPSJub256ZXJvIi8+JiN4YTsgICAgICAgICAgICA8cGF0aCBkPSJNMTE4LjM2NDAzNCw5Ni44OTQ3MTU5IEMxMjIuMjczNjkzLDk2Ljg5NDcxNTkgMTI1LjQ0MzU4LDkzLjczNjc2MTQgMTI1LjQ0MzU4LDg5LjgzMTA3OTUgQzEyNS40NDM1OCw4NS45MzczMjk1IDEyMi4yNzM2OTMsODIuNzY3NDQzMiAxMTguMzY0MDM0LDgyLjc2NzQ0MzIgQzExNC40NTQzNzUsODIuNzY3NDQzMiAxMTEuMjg0NDg5LDg1LjkzNzMyOTUgMTExLjI4NDQ4OSw4OS44MzEwNzk1IEMxMTEuMjg0NDg5LDkzLjczNjc2MTQgMTE0LjQ1NDM3NSw5Ni44OTQ3MTU5IDExOC4zNjQwMzQsOTYuODk0NzE1OSIgaWQ9IkZpbGwtNSIgZmlsbD0iIzAwNURGRiIgZmlsbC1ydWxlPSJub256ZXJvIi8+JiN4YTsgICAgICAgICAgICA8cGF0aCBkPSJNNTguMTkwMjg0MSwyNDguNzQzNDA5IEM1NC4yODA2MjUsMjQ4Ljc0MzQwOSA1MS4xMTA3Mzg2LDI1MS45MDkzMTggNTEuMTEwNzM4NiwyNTUuODA3MDQ1IEM1MS4xMTA3Mzg2LDI1OS43MDg3NSA1NC4yODA2MjUsMjYyLjg3MDY4MiA1OC4xOTAyODQxLDI2Mi44NzA2ODIgQzYyLjA5OTk0MzIsMjYyLjg3MDY4MiA2NS4yNjk4Mjk1LDI1OS43MDg3NSA2NS4yNjk4Mjk1LDI1NS44MDcwNDUgQzY1LjI2OTgyOTUsMjUxLjkwOTMxOCA2Mi4wOTk5NDMyLDI0OC43NDM0MDkgNTguMTkwMjg0MSwyNDguNzQzNDA5IiBpZD0iRmlsbC03IiBmaWxsPSIjMDA1REZGIiBmaWxsLXJ1bGU9Im5vbnplcm8iLz4mI3hhOyAgICAgICAgICAgIDxwYXRoIGQ9Ik0yNDUuNzk0MjYxLDEzOS4yNzEzNjQgQzI0MS44ODQ2MDIsMTM5LjI3MTM2NCAyMzguNzE0NzE2LDE0Mi40MzcyNzMgMjM4LjcxNDcxNiwxNDYuMzM1IEMyMzguNzE0NzE2LDE1MC4yMzY3MDUgMjQxLjg4NDYwMiwxNTMuMzk4NjM2IDI0NS43OTQyNjEsMTUzLjM5ODYzNiBDMjQ5LjcwMzkyLDE1My4zOTg2MzYgMjUyLjg3MzgwNywxNTAuMjM2NzA1IDI1Mi44NzM4MDcsMTQ2LjMzNSBDMjUyLjg3MzgwNywxNDIuNDM3MjczIDI0OS43MDM5MiwxMzkuMjcxMzY0IDI0NS43OTQyNjEsMTM5LjI3MTM2NCIgaWQ9IkZpbGwtOSIgZmlsbD0iIzAwNURGRiIgZmlsbC1ydWxlPSJub256ZXJvIi8+JiN4YTsgICAgICAgICAgICA8cGF0aCBkPSJNMTA0LjIwNjkzMiwyMjQuMDIzODY0IEMxMDguMTE2NTkxLDIyNC4wMjM4NjQgMTExLjI4NjQ3NywyMjAuODY1OTA5IDExMS4yODY0NzcsMjE2Ljk2MDIyNyBDMTExLjI4NjQ3NywyMTMuMDYyNSAxMDguMTE2NTkxLDIwOS44OTY1OTEgMTA0LjIwNjkzMiwyMDkuODk2NTkxIEMxMDAuMjk3MjczLDIwOS44OTY1OTEgOTcuMTI3Mzg2NCwyMTMuMDYyNSA5Ny4xMjczODY0LDIxNi45NjAyMjcgQzk3LjEyNzM4NjQsMjIwLjg2NTkwOSAxMDAuMjk3MjczLDIyNC4wMjM4NjQgMTA0LjIwNjkzMiwyMjQuMDIzODY0IiBpZD0iRmlsbC0xMSIgZmlsbD0iIzAwNURGRiIgZmlsbC1ydWxlPSJub256ZXJvIi8+JiN4YTsgICAgICAgICAgICA8cGF0aCBkPSJNMzAyLjQyOTQzMiwyNTIuMjc0NDMyIEMyOTguNTE5NzczLDI1Mi4yNzQ0MzIgMjk1LjM0OTg4NiwyNTUuNDQwMzQxIDI5NS4zNDk4ODYsMjU5LjMzODA2OCBDMjk1LjM0OTg4NiwyNjMuMjM5NzczIDI5OC41MTk3NzMsMjY2LjQwMTcwNSAzMDIuNDI5NDMyLDI2Ni40MDE3MDUgQzMwNi4zMzkwOTEsMjY2LjQwMTcwNSAzMDkuNTA4OTc3LDI2My4yMzk3NzMgMzA5LjUwODk3NywyNTkuMzM4MDY4IEMzMDkuNTA4OTc3LDI1NS40NDAzNDEgMzA2LjMzOTA5MSwyNTIuMjc0NDMyIDMwMi40Mjk0MzIsMjUyLjI3NDQzMiIgaWQ9IkZpbGwtMTMiIGZpbGw9IiMwMDVERkYiIGZpbGwtcnVsZT0ibm9uemVybyIvPiYjeGE7ICAgICAgICAgICAgPHBhdGggZD0iTTE3NC45OTk2MDIsMzM3LjAyNjkzMiBDMTcxLjA4OTk0MywzMzcuMDI2OTMyIDE2Ny45MjAwNTcsMzQwLjE5Mjg0MSAxNjcuOTIwMDU3LDM0NC4wOTA1NjggQzE2Ny45MjAwNTcsMzQ3Ljk5MjI3MyAxNzEuMDg5OTQzLDM1MS4xNTQyMDUgMTc0Ljk5OTYwMiwzNTEuMTU0MjA1IEMxNzguOTA5MjYxLDM1MS4xNTQyMDUgMTgyLjA3OTE0OCwzNDcuOTkyMjczIDE4Mi4wNzkxNDgsMzQ0LjA5MDU2OCBDMTgyLjA3OTE0OCwzNDAuMTkyODQxIDE3OC45MDkyNjEsMzM3LjAyNjkzMiAxNzQuOTk5NjAyLDMzNy4wMjY5MzIiIGlkPSJGaWxsLTE1IiBmaWxsPSIjMDA1REZGIiBmaWxsLXJ1bGU9Im5vbnplcm8iLz4mI3hhOyAgICAgICAgICAgIDxwYXRoIGQ9Ik0yNTkuOTUxNzYxLDI4MC41MjU3OTUgQzI1Ni4wNDIxMDIsMjgwLjUyNTc5NSAyNTIuODcyMjE2LDI4My42OTE3MDUgMjUyLjg3MjIxNiwyODcuNTg5NDMyIEMyNTIuODcyMjE2LDI5MS40OTExMzYgMjU2LjA0MjEwMiwyOTQuNjUzMDY4IDI1OS45NTE3NjEsMjk0LjY1MzA2OCBDMjYzLjg2MTQyLDI5NC42NTMwNjggMjY3LjAzMTMwNywyOTEuNDkxMTM2IDI2Ny4wMzEzMDcsMjg3LjU4OTQzMiBDMjY3LjAzMTMwNywyODMuNjkxNzA1IDI2My44NjE0MiwyODAuNTI1Nzk1IDI1OS45NTE3NjEsMjgwLjUyNTc5NSIgaWQ9IkZpbGwtMTciIGZpbGw9IiMwMDVERkYiIGZpbGwtcnVsZT0ibm9uemVybyIvPiYjeGE7ICAgICAgICAgICAgPHBhdGggZD0iTTI1OS45NTE3NjEsMjA5Ljg5ODU4IEMyNTYuMDQyMTAyLDIwOS44OTg1OCAyNTIuODcyMjE2LDIxMy4wNjQ0ODkgMjUyLjg3MjIxNiwyMTYuOTYyMjE2IEMyNTIuODcyMjE2LDIyMC44NjM5MiAyNTYuMDQyMTAyLDIyNC4wMjU4NTIgMjU5Ljk1MTc2MSwyMjQuMDI1ODUyIEMyNjMuODYxNDIsMjI0LjAyNTg1MiAyNjcuMDMxMzA3LDIyMC44NjM5MiAyNjcuMDMxMzA3LDIxNi45NjIyMTYgQzI2Ny4wMzEzMDcsMjEzLjA2NDQ4OSAyNjMuODYxNDIsMjA5Ljg5ODU4IDI1OS45NTE3NjEsMjA5Ljg5ODU4IiBpZD0iRmlsbC0xOSIgZmlsbD0iIzAwNURGRiIgZmlsbC1ydWxlPSJub256ZXJvIi8+JiN4YTsgICAgICAgICAgICA8ZyBpZD0iR3JvdXAtMjMiPiYjeGE7ICAgICAgICAgICAgICAgIDxnIGlkPSJGaWxsLTIxLUNsaXBwZWQiPiYjeGE7ICAgICAgICAgICAgICAgICAgICA8bWFzayBpZD0ibWFzay0yIiBmaWxsPSJ3aGl0ZSI+JiN4YTsgICAgICAgICAgICAgICAgICAgICAgICA8dXNlIHhsaW5rOmhyZWY9IiNwYXRoLTEiLz4mI3hhOyAgICAgICAgICAgICAgICAgICAgPC9tYXNrPiYjeGE7ICAgICAgICAgICAgICAgICAgICA8ZyBpZD0icGF0aC0xIi8+JiN4YTsgICAgICAgICAgICAgICAgICAgIDxwYXRoIGQ9Ik0zMzkuODA5ODMsMjk4Ljc5NjE5MyBMMTc0Ljk5OTYwMiwzOTQuNzA4MTI1IEwxMC4xOTMzNTIzLDI5OC43OTYxOTMgTDEwLjE5MzM1MjMsMTA2Ljg4MDg1MiBMMTc0Ljk5OTYwMiwxMC45Njg5MjA1IEwzMzkuODA5ODMsMTA2Ljg4MDg1MiBMMzM5LjgwOTgzLDI5OC43OTYxOTMgWiBNMzQ3LjQ3MDA1Nyw5OS41NzA2MjUgTDE3Ny41NjQ5NDMsMC42OTE2NDc3MjcgQzE3NS45ODk5NDMsLTAuMjMxMDc5NTQ1IDE3NC4wMDkyNjEsLTAuMjMxMDc5NTQ1IDE3Mi40MzQyNjEsMC42OTE2NDc3MjcgTDIuNTI5MTQ3NzMsOTkuNTcwNjI1IEMwLjk2MjEwMjI3MywxMDAuNDgxNDIgLTAuMDAwMzk3NzI3MjczLDEwMi4xNTE4NzUgLTAuMDAwMzk3NzI3MjczLDEwMy45NTc1NTcgTC0wLjAwMDM5NzcyNzI3MywzMDEuNzE1NTExIEMtMC4wMDAzOTc3MjcyNzMsMzAzLjUyOTE0OCAwLjk2MjEwMjI3MywzMDUuMTk1NjI1IDIuNTI5MTQ3NzMsMzA2LjEwNjQyIEwxNzIuNDM0MjYxLDQwNC45ODUzOTggQzE3My4yMjE3NjEsNDA1LjQ0Njc2MSAxNzQuMTE2NjQ4LDQwNS42ODE0MiAxNzQuOTk5NjAyLDQwNS42ODE0MiBDMTc1Ljg4NjUzNCw0MDUuNjgxNDIgMTc2Ljc3NzQ0Myw0MDUuNDQ2NzYxIDE3Ny41NjQ5NDMsNDA0Ljk4NTM5OCBMMzQ3LjQ3MDA1NywzMDYuMTA2NDIgQzM0OS4wMzcxMDIsMzA1LjE5NTYyNSAzNDkuOTk5NjAyLDMwMy41MjkxNDggMzQ5Ljk5OTYwMiwzMDEuNzE1NTExIEwzNDkuOTk5NjAyLDEwMy45NTc1NTcgQzM0OS45OTk2MDIsMTAyLjE1MTg3NSAzNDkuMDM3MTAyLDEwMC40ODE0MiAzNDcuNDcwMDU3LDk5LjU3MDYyNSBMMzQ3LjQ3MDA1Nyw5OS41NzA2MjUgWiIgaWQ9IkZpbGwtMjEiIGZpbGw9IiMwMDVERkYiIGZpbGwtcnVsZT0ibm9uemVybyIgbWFzaz0idXJsKCNtYXNrLTIpIi8+JiN4YTsgICAgICAgICAgICAgICAgPC9nPiYjeGE7ICAgICAgICAgICAgPC9nPiYjeGE7ICAgICAgICAgICAgPHBhdGggZD0iTTIzMS42MzQ3NzMsOTQuOTIyMzg2NCBDMjM2LjYzNDIwNSw5NC45MjIzODY0IDI0MC42OTg5NzcsOTguOTc5MjA0NSAyNDAuNjk4OTc3LDEwMy45NTg3NSBDMjQwLjY5ODk3NywxMDguOTQ2MjUgMjM2LjYzNDIwNSwxMTIuOTk5MDkxIDIzMS42MzQ3NzMsMTEyLjk5OTA5MSBDMjI2LjYzNTM0MSwxMTIuOTk5MDkxIDIyMi41NzA1NjgsMTA4Ljk0NjI1IDIyMi41NzA1NjgsMTAzLjk1ODc1IEMyMjIuNTcwNTY4LDk4Ljk3OTIwNDUgMjI2LjYzNTM0MSw5NC45MjIzODY0IDIzMS42MzQ3NzMsOTQuOTIyMzg2NCBMMjMxLjYzNDc3Myw5NC45MjIzODY0IFogTTIxNy40NzU2ODIsMjM2LjE3NTIyNyBDMjIyLjQ3NTExNCwyMzYuMTc1MjI3IDIyNi41Mzk4ODYsMjQwLjIzMjA0NSAyMjYuNTM5ODg2LDI0NS4yMTE1OTEgQzIyNi41Mzk4ODYsMjUwLjE5OTA5MSAyMjIuNDc1MTE0LDI1NC4yNTU5MDkgMjE3LjQ3NTY4MiwyNTQuMjU1OTA5IEMyMTIuNDgwMjI3LDI1NC4yNTU5MDkgMjA4LjQxMTQ3NywyNTAuMTk5MDkxIDIwOC40MTE0NzcsMjQ1LjIxMTU5MSBDMjA4LjQxMTQ3NywyNDAuMjMyMDQ1IDIxMi40ODAyMjcsMjM2LjE3NTIyNyAyMTcuNDc1NjgyLDIzNi4xNzUyMjcgTDIxNy40NzU2ODIsMjM2LjE3NTIyNyBaIE0xNzQuOTk4NDA5LDIxNy43MzI2MTQgQzE2Ni43NzM0MDksMjE3LjczMjYxNCAxNjAuMDcxNzA1LDIxMS4wNTA3OTUgMTYwLjA3MTcwNSwyMDIuODQxNzA1IEMxNjAuMDcxNzA1LDE5NC42Mjg2MzYgMTY2Ljc3MzQwOSwxODcuOTUwNzk1IDE3NC45OTg0MDksMTg3Ljk1MDc5NSBDMTgzLjIyNzM4NiwxODcuOTUwNzk1IDE4OS45MjUxMTQsMTk0LjYyODYzNiAxODkuOTI1MTE0LDIwMi44NDE3MDUgQzE4OS45MjUxMTQsMjExLjA1MDc5NSAxODMuMjI3Mzg2LDIxNy43MzI2MTQgMTc0Ljk5ODQwOSwyMTcuNzMyNjE0IEwxNzQuOTk4NDA5LDIxNy43MzI2MTQgWiBNMjg4LjI3MTEzNiwxNjUuNTUwNzk1IEMyOTMuMjcwNTY4LDE2NS41NTA3OTUgMjk3LjMzNTM0MSwxNjkuNjAzNjM2IDI5Ny4zMzUzNDEsMTc0LjU4MzE4MiBDMjk3LjMzNTM0MSwxNzkuNTcwNjgyIDI5My4yNzA1NjgsMTgzLjYyNzUgMjg4LjI3MTEzNiwxODMuNjI3NSBDMjgzLjI3MTcwNSwxODMuNjI3NSAyNzkuMjA2OTMyLDE3OS41NzA2ODIgMjc5LjIwNjkzMiwxNzQuNTgzMTgyIEMyNzkuMjA2OTMyLDE2OS42MDM2MzYgMjgzLjI3MTcwNSwxNjUuNTUwNzk1IDI4OC4yNzExMzYsMTY1LjU1MDc5NSBMMjg4LjI3MTEzNiwxNjUuNTUwNzk1IFogTTExOC4zNjYwMjMsMzEwLjc1NzA0NSBDMTEzLjM2NjU5MSwzMTAuNzU3MDQ1IDEwOS4zMDE4MTgsMzA2LjcwMDIyNyAxMDkuMzAxODE4LDMwMS43MTI3MjcgQzEwOS4zMDE4MTgsMjk2LjczMzE4MiAxMTMuMzY2NTkxLDI5Mi42ODAzNDEgMTE4LjM2NjAyMywyOTIuNjgwMzQxIEMxMjMuMzYxNDc3LDI5Mi42ODAzNDEgMTI3LjQzMDIyNywyOTYuNzMzMTgyIDEyNy40MzAyMjcsMzAxLjcxMjcyNyBDMTI3LjQzMDIyNywzMDYuNzAwMjI3IDEyMy4zNjE0NzcsMzEwLjc1NzA0NSAxMTguMzY2MDIzLDMxMC43NTcwNDUgTDExOC4zNjYwMjMsMzEwLjc1NzA0NSBaIE02MS43Mjk2NTkxLDE4My42Mjc1IEM1Ni43MzAyMjczLDE4My42Mjc1IDUyLjY2NTQ1NDUsMTc5LjU3MDY4MiA1Mi42NjU0NTQ1LDE3NC41ODMxODIgQzUyLjY2NTQ1NDUsMTY5LjYwMzYzNiA1Ni43MzAyMjczLDE2NS41NTA3OTUgNjEuNzI5NjU5MSwxNjUuNTUwNzk1IEM2Ni43MjkwOTA5LDE2NS41NTA3OTUgNzAuNzkzODYzNiwxNjkuNjAzNjM2IDcwLjc5Mzg2MzYsMTc0LjU4MzE4MiBDNzAuNzkzODYzNiwxNzkuNTcwNjgyIDY2LjcyOTA5MDksMTgzLjYyNzUgNjEuNzI5NjU5MSwxODMuNjI3NSBMNjEuNzI5NjU5MSwxODMuNjI3NSBaIE0xMjMuNDYwOTA5LDEzMi4yMDkzMTggQzEyMy40NjA5MDksMTI3LjIyOTc3MyAxMjcuNTI1NjgyLDEyMy4xNzI5NTUgMTMyLjUyNTExNCwxMjMuMTcyOTU1IEMxMzcuNTIwNTY4LDEyMy4xNzI5NTUgMTQxLjU4NTM0MSwxMjcuMjI5NzczIDE0MS41ODUzNDEsMTMyLjIwOTMxOCBDMTQxLjU4NTM0MSwxMzcuMTk2ODE4IDEzNy41MjA1NjgsMTQxLjI0OTY1OSAxMzIuNTI1MTE0LDE0MS4yNDk2NTkgQzEyNy41MjU2ODIsMTQxLjI0OTY1OSAxMjMuNDYwOTA5LDEzNy4xOTY4MTggMTIzLjQ2MDkwOSwxMzIuMjA5MzE4IEwxMjMuNDYwOTA5LDEzMi4yMDkzMTggWiBNMTgyLjcxODI5NSwxNzkuMTE3MjczIEMxODAuMjcyMjczLDE3OC4zMjE4MTggMTc3LjcxMDkwOSwxNzcuNzg0ODg2IDE3NC45OTg0MDksMTc3Ljc4NDg4NiBDMTcyLjEwMjk1NSwxNzcuNzg0ODg2IDE2OS4zNjI2MTQsMTc4LjM2OTU0NSAxNjYuNzY5NDMyLDE3OS4yNzYzNjQgTDE0Ni40MjE3MDUsMTQ1LjQzNzcyNyBDMTQ5LjcxODg2NCwxNDEuOTg5NDMyIDE1MS43NzkwOTEsMTM3LjM0Nzk1NSAxNTEuNzc5MDkxLDEzMi4yMDkzMTggQzE1MS43NzkwOTEsMTIxLjYyMTgxOCAxNDMuMTQwNDU1LDExMi45OTkwOTEgMTMyLjUyNTExNCwxMTIuOTk5MDkxIEMxMjEuOTA1Nzk1LDExMi45OTkwOTEgMTEzLjI3MTEzNiwxMjEuNjIxODE4IDExMy4yNzExMzYsMTMyLjIwOTMxOCBDMTEzLjI3MTEzNiwxNDIuODAwNzk1IDEyMS45MDU3OTUsMTUxLjQyMzUyMyAxMzIuNTI1MTE0LDE1MS40MjM1MjMgQzEzNC4zMTQ4ODYsMTUxLjQyMzUyMyAxMzYuMDE3MTU5LDE1MS4xMDEzNjQgMTM3LjY2Mzc1LDE1MC42NCBMMTU4LjAyMzQwOSwxODQuNDkwNTY4IEMxNTUuNzI0NTQ1LDE4Ni42MTQ0MzIgMTUzLjg1MTI1LDE4OS4xMzYwMjMgMTUyLjQ3MTEzNiwxOTEuOTc5NzczIEw4MC45MzU5MDkxLDE3NC4xMzc3MjcgQzgwLjY4OTMxODIsMTYzLjc1NzA0NSA3Mi4xOTM4NjM2LDE1NS4zNzY5MzIgNjEuNzI5NjU5MSwxNTUuMzc2OTMyIEM1MS4xMTAzNDA5LDE1NS4zNzY5MzIgNDIuNDc1NjgxOCwxNjMuOTk5NjU5IDQyLjQ3NTY4MTgsMTc0LjU4MzE4MiBDNDIuNDc1NjgxOCwxODUuMTc4NjM2IDUxLjExMDM0MDksMTkzLjgwMTM2NCA2MS43Mjk2NTkxLDE5My44MDEzNjQgQzY4LjkwODYzNjQsMTkzLjgwMTM2NCA3NS4xMDUyMjczLDE4OS44MTIxNTkgNzguNDE4Mjk1NSwxODMuOTkzNDA5IEwxNDkuOTg1MzQxLDIwMS44NDM0MDkgQzE0OS45Njk0MzIsMjAyLjE4MTQ3NyAxNDkuODgxOTMyLDIwMi40OTk2NTkgMTQ5Ljg4MTkzMiwyMDIuODQxNzA1IEMxNDkuODgxOTMyLDIxMC4yOTkwOTEgMTUzLjIzMDc5NSwyMTYuOTI1MjI3IDE1OC40MjkwOTEsMjIxLjUyNjkzMiBMMTIzLjExNDg4NiwyODMuMTY2NzA1IEMxMjEuNTg3NjE0LDI4Mi43ODA5MDkgMTIwLjAxNjU5MSwyODIuNTA2NDc3IDExOC4zNjYwMjMsMjgyLjUwNjQ3NyBDMTA3Ljc0NjcwNSwyODIuNTA2NDc3IDk5LjExMjA0NTUsMjkxLjEyNTIyNyA5OS4xMTIwNDU1LDMwMS43MTI3MjcgQzk5LjExMjA0NTUsMzEyLjMwODE4MiAxMDcuNzQ2NzA1LDMyMC45MzA5MDkgMTE4LjM2NjAyMywzMjAuOTMwOTA5IEMxMjguOTgxMzY0LDMyMC45MzA5MDkgMTM3LjYyLDMxMi4zMDgxODIgMTM3LjYyLDMwMS43MTI3MjcgQzEzNy42MiwyOTYuNDMwOTA5IDEzNS40NjgyOTUsMjkxLjY0MjI3MyAxMzEuOTkyMTU5LDI4OC4xNjYxMzYgTDE2Ny4yODI1LDIyNi41NjIxNTkgQzE2OS43Mjg1MjMsMjI3LjM2MTU5MSAxNzIuMjg5ODg2LDIyNy44OTg1MjMgMTc0Ljk5ODQwOSwyMjcuODk4NTIzIEMxODAuMDg1MzQxLDIyNy44OTg1MjMgMTg0LjgwNjM2NCwyMjYuMzYzMjk1IDE4OC43NjM3NSwyMjMuNzYyMTU5IEwyMDAuODEwOTA5LDIzNS43Nzc1IEMxOTkuMjEyMDQ1LDIzOC41Nzc1IDE5OC4yMjE3MDUsMjQxLjc3MTI1IDE5OC4yMjE3MDUsMjQ1LjIxMTU5MSBDMTk4LjIyMTcwNSwyNTUuODA3MDQ1IDIwNi44NTYzNjQsMjY0LjQyOTc3MyAyMTcuNDc1NjgyLDI2NC40Mjk3NzMgQzIyOC4wOTUsMjY0LjQyOTc3MyAyMzYuNzI5NjU5LDI1NS44MDcwNDUgMjM2LjcyOTY1OSwyNDUuMjExNTkxIEMyMzYuNzI5NjU5LDIzNC42MjQwOTEgMjI4LjA5NSwyMjYuMDA1MzQxIDIxNy40NzU2ODIsMjI2LjAwNTM0MSBDMjE0LjAxOTQzMiwyMjYuMDA1MzQxIDIxMC44MjE3MDUsMjI2Ljk5MTcwNSAyMDguMDEzNzUsMjI4LjU5MDU2OCBMMTk1Ljk3MDU2OCwyMTYuNTY3MjczIEMxOTguNTc1NjgyLDIxMi42MjE4MTggMjAwLjExNDg4NiwyMDcuOTEyNzI3IDIwMC4xMTQ4ODYsMjAyLjg0MTcwNSBDMjAwLjExNDg4NiwyMDIuNDk5NjU5IDIwMC4wMjczODYsMjAyLjE4MTQ3NyAyMDAuMDE1NDU1LDIwMS44NDM0MDkgTDI3MS41ODI1LDE4My45OTM0MDkgQzI3NC44OTU1NjgsMTg5LjgxMjE1OSAyODEuMDkyMTU5LDE5My44MDEzNjQgMjg4LjI3MTEzNiwxOTMuODAxMzY0IEMyOTguODkwNDU1LDE5My44MDEzNjQgMzA3LjUyNTExNCwxODUuMTc4NjM2IDMwNy41MjUxMTQsMTc0LjU4MzE4MiBDMzA3LjUyNTExNCwxNjMuOTk5NjU5IDI5OC44OTA0NTUsMTU1LjM3NjkzMiAyODguMjcxMTM2LDE1NS4zNzY5MzIgQzI3Ny44MDI5NTUsMTU1LjM3NjkzMiAyNjkuMzA3NSwxNjMuNzU3MDQ1IDI2OS4wNjA5MDksMTc0LjEzNzcyNyBMMTk3LjUyOTY1OSwxOTEuOTc5NzczIEMxOTYuMDcsMTg4Ljk4MDkwOSAxOTQuMDQ1NTY4LDE4Ni4zNDM5NzcgMTkxLjU3MTcwNSwxODQuMTU2NDc3IEwyMjYuODgxOTMyLDEyMi41MTI3MjcgQzIyOC40MDkyMDUsMTIyLjg5ODUyMyAyMjkuOTg0MjA1LDEyMy4xNzI5NTUgMjMxLjYzNDc3MywxMjMuMTcyOTU1IEMyNDIuMjU0MDkxLDEyMy4xNzI5NTUgMjUwLjg4ODc1LDExNC41NTAyMjcgMjUwLjg4ODc1LDEwMy45NTg3NSBDMjUwLjg4ODc1LDkzLjM3MTI1IDI0Mi4yNTQwOTEsODQuNzQ4NTIyNyAyMzEuNjM0NzczLDg0Ljc0ODUyMjcgQzIyMS4wMTU0NTUsODQuNzQ4NTIyNyAyMTIuMzgwNzk1LDkzLjM3MTI1IDIxMi4zODA3OTUsMTAzLjk1ODc1IEMyMTIuMzgwNzk1LDEwOS4yNDA1NjggMjE0LjUzMjUsMTE0LjAzMzE4MiAyMTguMDA0NjU5LDExNy41MDkzMTggTDE4Mi43MTgyOTUsMTc5LjExNzI3MyBaIiBpZD0iRmlsbC0yNCIgZmlsbD0iIzAwNURGRiIgZmlsbC1ydWxlPSJub256ZXJvIi8+JiN4YTsgICAgICAgIDwvZz4mI3hhOyAgICA8L2c+JiN4YTs8L3N2Zz4=;fillColor=none;fontColor=#4277BB;align=center;" parent="cy2UKIFJcyqrFq40SOo--24" vertex="1">
                    <mxGeometry x="376" y="4.039999999999964" width="19.01" height="21.93" as="geometry"/>
                </mxCell>
                <mxCell id="cy2UKIFJcyqrFq40SOo--34" value="Cartridge" style="fontStyle=0;verticalAlign=top;align=center;spacingTop=-2;fillColor=#99CCFF;rounded=0;whiteSpace=wrap;html=1;strokeColor=#99CCFF;strokeWidth=3;dashed=0;container=1;collapsible=0;expand=0;recursiveResize=0;" parent="cy2UKIFJcyqrFq40SOo--22" vertex="1">
                    <mxGeometry x="694" y="310" width="80" height="30" as="geometry"/>
                </mxCell>
                <mxCell id="cy2UKIFJcyqrFq40SOo--35" value="Cartridge" style="fontStyle=0;verticalAlign=top;align=center;spacingTop=-2;fillColor=#99CCFF;rounded=0;whiteSpace=wrap;html=1;strokeColor=#99CCFF;strokeWidth=3;dashed=0;container=1;collapsible=0;expand=0;recursiveResize=0;" parent="cy2UKIFJcyqrFq40SOo--22" vertex="1">
                    <mxGeometry x="614" y="310" width="76" height="30" as="geometry"/>
                </mxCell>
                <mxCell id="cy2UKIFJcyqrFq40SOo--36" value="Cartridge" style="fontStyle=0;verticalAlign=top;align=center;spacingTop=-2;fillColor=#99CCFF;rounded=0;whiteSpace=wrap;html=1;strokeColor=#99CCFF;strokeWidth=3;dashed=0;container=1;collapsible=0;expand=0;recursiveResize=0;" parent="cy2UKIFJcyqrFq40SOo--22" vertex="1">
                    <mxGeometry x="524" y="310" width="86" height="30" as="geometry"/>
                </mxCell>
                <mxCell id="cy2UKIFJcyqrFq40SOo--37" value="Cartridge" style="fontStyle=0;verticalAlign=top;align=center;spacingTop=-2;fillColor=#99CCFF;rounded=0;whiteSpace=wrap;html=1;strokeColor=#99CCFF;strokeWidth=3;dashed=0;container=1;collapsible=0;expand=0;recursiveResize=0;" parent="cy2UKIFJcyqrFq40SOo--22" vertex="1">
                    <mxGeometry x="434" y="310" width="86" height="30" as="geometry"/>
                </mxCell>
                <mxCell id="cy2UKIFJcyqrFq40SOo--38" value="Cartridge" style="fontStyle=0;verticalAlign=top;align=center;spacingTop=-2;fillColor=#99CCFF;rounded=0;whiteSpace=wrap;html=1;strokeColor=#99CCFF;strokeWidth=3;dashed=0;container=1;collapsible=0;expand=0;recursiveResize=0;" parent="cy2UKIFJcyqrFq40SOo--22" vertex="1">
                    <mxGeometry x="354" y="310" width="76" height="30" as="geometry"/>
                </mxCell>
            </root>
        </mxGraphModel>
    </diagram>
</mxfile>